<svg width="298" height="128" xmlns="http://www.w3.org/2000/svg">
  <g fill="#000" fill-rule="evenodd">
    <path d="M297.57 127.37H0V0h297.57v127.37zM7.5 119.87h282.56V7.49H7.5v112.38z" fill-rule="nonzero"/>
    <path d="M34.68 90.02v14.25h-6.75v-35h13.15c4.5 0 7.15 1.1 9.1 3.15a10.93 10.93 0 0 1 0 14.5c-1.9 2-4.6 3.1-9.1 3.1h-6.4zm6.1-6c2.3 0 3.45-.55 4.25-1.4a4.2 4.2 0 0 0 1.15-2.95 4.32 4.32 0 0 0-1.15-3c-.8-.85-2-1.4-4.25-1.4h-6.1v8.75h6.1zM65.93 88.77v15.5h-6.75v-35h12.75c3.6 0 5.9 1 7.65 2.6a9.8 9.8 0 0 1 0 14.3 9 9 0 0 1-3.5 2l13.1 16.05h-8.35L68.38 88.77h-2.45zm5.6-6c1.95 0 2.8-.4 3.4-1.05a4.08 4.08 0 0 0 0-5.35c-.6-.65-1.45-1.1-3.4-1.1h-5.6v7.5h5.6zM107.68 68.77c10.8 0 18.25 8.05 18.25 18s-7.45 18-18.25 18-18.25-8.05-18.25-18 7.45-18 18.25-18m0 30c6.6 0 11.5-5.4 11.5-12s-4.9-12-11.5-12-11.5 5.4-11.5 12 4.9 12 11.5 12" fill-rule="nonzero"/>
    <path d="M148.43 93.27c0 2.8-.3 4.7-1.1 6.2a10.64 10.64 0 0 1-9.55 5.3 10.36 10.36 0 0 1-9.85-6.15l5.8-2.9a4.4 4.4 0 0 0 4.1 3.05c1.18.03 2.3-.48 3.05-1.4.65-.99.93-2.17.8-3.35V69.27h6.75v24zM164.18 75.27v7.25h10.75v6h-10.75v9.75h14.75v6h-21.5v-35h21v6zM189.68 86.77a11.77 11.77 0 0 0 11.95 12c3.88.05 7.56-1.75 9.9-4.85l4.65 4.15a18.4 18.4 0 0 1-14.7 6.7c-10.9 0-18.55-7.95-18.55-18s7.55-18 18.45-18a18.19 18.19 0 0 1 12.8 5l-4.35 4.6a12 12 0 0 0-8.5-3.6 11.68 11.68 0 0 0-11.65 12M244.93 69.27v6h-9.25v29h-6.75v-29h-9.25v-6z"/>
    <path d="M46.23 22.68c10.8 0 18.25 8 18.25 18s-7.45 18-18.25 18-18.25-8-18.25-18 7.45-18 18.25-18m0 30c6.6 0 11.5-5.4 11.5-12s-4.9-12-11.5-12-11.5 5.4-11.5 12 4.9 12 11.5 12M64.73 58.19l15-35h4.75l15 35h-7l-3.3-7.76h-14.1l-3.3 7.76h-7.05zm12.9-13.76h8.9l-4.45-10.35-4.45 10.35z" fill-rule="nonzero"/>
    <path d="M120.99 44.13l12.75-20.95h4.75v35.01h-6.75v-19.5l-8.4 13.75h-4.7l-8.41-13.75v19.5h-6.75V23.18h4.75zM163.99 44.13l12.75-20.95h4.75v35.01h-6.75v-19.5l-8.4 13.75h-4.7l-8.41-13.75v19.5h-6.75V23.18h4.75zM189.48 23.18h6.75v35h-6.75z"/>
    <path d="M213.16 53.49a3.75 3.75 0 0 0-3.78-3.8 3.76 3.76 0 1 0 3.78 3.8zm-3.78 4.72a4.76 4.76 0 1 1 .04-9.52 4.76 4.76 0 0 1-.04 9.52z" fill-rule="nonzero"/>
    <path d="M208.59 53.63v2.09h-.91V51h1.7c.37-.01.72.11 1 .35a1.32 1.32 0 0 1-.47 2.21l1.76 2.16h-1.12l-1.68-2.09h-.28zm.75-.81c.27 0 .38 0 .46-.14a.53.53 0 0 0 0-.72.54.54 0 0 0-.46-.15h-.75v1l.75.01z" fill-rule="nonzero"/>
  </g>
</svg>
